#!OML:ASF Y:\EmotionMaleHayes\Project 1\Capture day 1\Session 1\Male1.ASF
:FULLY-SPECIFIED
:DEGREES
1144
root 30.7043 16.9452 15.4729 329.256 95.0794 330.287
lowerback 4.5151 1.04622 -16.8882
upperback 5.78519 1.5908 -4.33105
thorax 3.44384 0.428086 4.77685
lowerneck -22.5719 3.16818 4.95522
upperneck 25.9741 0.858493 7.57309
head 12.4296 2.09206 2.24889
rclavicle -1.47101e-014 3.18055e-015
rhumerus 37.0821 16.3083 -29.9853
rradius 39.9188
rwrist -3.90061
rhand -5.05613 -32.189
rfingers 7.12502
rthumb 20.7395 -61.1008
lclavicle -1.47101e-014 3.18055e-015
lhumerus 41.7882 -14.7451 30.959
lradius 39.9182
lwrist 3.56454
lhand -13.505 -25.0101
lfingers 7.12502
lthumb 12.6063 4.58951
rfemur -14.3883 -7.35958 8.00787
rtibia 7.51178
rfoot 9.51292 8.32987
rtoes 10.8323
lfemur 24.9288 -8.11562 -24.955
ltibia 8.27633
lfoot -9.04004 -12.147
ltoes 8.12134
1145
root 30.8624 16.9095 15.4936 330.884 95.9212 331.953
lowerback 4.60773 1.01496 -16.9822
upperback 5.66128 1.50931 -4.32424
thorax 3.27255 0.402528 4.8347
lowerneck -21.9098 3.18222 5.68411
upperneck 25.6999 0.902587 6.85575
head 12.1981 2.06694 1.83454
rclavicle -4.37326e-015 -6.83819e-014
rhumerus 37.0958 16.4494 -29.8442
rradius 39.9168
rwrist -3.94856
rhand -5.09405 -32.0519
rfingers 7.12502
rthumb 20.703 -60.9676
lclavicle -4.37326e-015 -6.83819e-014
lhumerus 42.5212 -15.7246 29.2518
lradius 39.9371
lwrist 5.18311
lhand -13.7812 -24.5127
lfingers 7.12502
lthumb 12.3401 5.10313
rfemur -14.4396 -7.58009 7.89091
rtibia 8.21297
rfoot 9.61475 8.82699
rtoes 16.1983
lfemur 25.3499 -8.36187 -25.0303
ltibia 8.5055
lfoot -8.79369 -12.6892
ltoes 7.52741
1146
root 31.0201 16.8728 15.5148 330.585 96.7735 331.687
lowerback 4.70104 1.06665 -17.1763
upperback 5.58907 1.5495 -4.35787
thorax 3.13543 0.432653 4.89961
lowerneck -22.1506 3.05976 5.42882
upperneck 25.8586 0.765251 6.93593
head 12.3061 2.00188 1.89565
rclavicle -5.96354e-015 -3.18055e-015
rhumerus 36.9524 16.269 -29.9404
rradius 39.9299
rwrist -3.7977
rhand -5.12858 -32.0135
rfingers 7.12502
rthumb 20.6699 -60.9328
lclavicle -5.96354e-015 -3.18055e-015
lhumerus 42.7285 -16.0117 28.9795
lradius 39.9646
lwrist 5.29762
lhand -13.9802 -24.4608
lfingers 7.12502
lthumb 12.1482 5.16649
rfemur -14.5293 -7.64439 7.58095
rtibia 9.18056
rfoot 7.17455 6.56565
rtoes 12.0796
lfemur 25.7477 -8.56816 -25.2823
ltibia 8.75184
lfoot -8.35121 -13.2603
ltoes 8.44675
1147
root 31.181 16.8348 15.5359 329.346 97.6776 330.478
lowerback 4.65078 1.11606 -17.5172
upperback 5.59253 1.63187 -4.40452
thorax 3.15639 0.465862 5.0303
lowerneck -22.0824 2.91255 5.46145
upperneck 25.7582 0.65279 6.5699
head 12.2516 1.89763 1.72552
rclavicle 1.63003e-014 4.77083e-015
rhumerus 36.8659 15.8423 -30.2703
rradius 39.7935
rwrist -3.36326
rhand -5.2311 -31.7231
rfingers 7.12502
rthumb 20.5714 -60.6531
lclavicle 1.63003e-014 4.77083e-015
lhumerus 42.8622 -16.0801 29.0418
lradius 39.9709
lwrist 5.20894
lhand -13.9867 -24.5974
lfingers 7.12502
lthumb 12.1419 5.03029
rfemur -14.6024 -7.30277 7.06407
rtibia 10.4519
rfoot 3.75797 2.79069
rtoes 7.98109
lfemur 26.1967 -8.8214 -25.7435
ltibia 8.96347
lfoot -7.63469 -13.6692
ltoes 11.4947
1148
root 31.3456 16.7966 15.558 329.207 98.5494 330.332
lowerback 4.52574 1.10021 -17.8267
upperback 5.55612 1.63275 -4.39738
thorax 3.19055 0.456683 5.20532
lowerneck -21.9873 3.02824 5.13087
upperneck 25.7794 0.873875 6.85072
head 12.2328 2.00323 1.9229
rclavicle 3.33958e-014 3.81667e-014
rhumerus 36.8108 15.8194 -30.2451
rradius 39.9499
rwrist -3.28275
rhand -5.48961 -31.6062
rfingers 7.12502
rthumb 20.3229 -60.5628
lclavicle 3.33958e-014 3.81667e-014
lhumerus 42.6979 -16.0236 29.3693
lradius 40.0189
lwrist 4.89318
lhand -13.8363 -24.6084
lfingers 7.12502
lthumb 12.287 5.01061
rfemur -14.5888 -6.66674 6.68702
rtibia 11.8899
rfoot 1.45489 1.44715
rtoes 8.65247
lfemur 26.5754 -9.06745 -26.012
ltibia 9.22912
lfoot -7.10624 -14.0262
ltoes 12.7733
1149
root 31.5092 16.7579 15.5801 330.591 99.2494 331.722
lowerback 4.48051 1.02439 -17.9081
upperback 5.46597 1.51947 -4.301
thorax 3.13927 0.401398 5.35586
lowerneck -22.1411 2.9601 4.87867
upperneck 26.0137 0.795077 7.03353
head 12.354 1.98159 2.034
rclavicle -3.65764e-014 -7.95139e-015
rhumerus 36.9966 15.8884 -30.4506
rradius 39.9307
rwrist -3.10284
rhand -5.73359 -31.4782
rfingers 7.12502
rthumb 20.0884 -60.4597
lclavicle -3.65764e-014 -7.95139e-015
lhumerus 42.3502 -16.0403 29.3583
lradius 40.0834
lwrist 4.80485
lhand -13.8717 -24.4875
lfingers 7.12502
lthumb 12.2528 5.13355
rfemur -14.5236 -5.93195 6.7181
rtibia 13.3378
rfoot -1.07389 0.538791
rtoes 10.9334
lfemur 26.9028 -9.27252 -25.8899
ltibia 9.60624
lfoot -6.86428 -14.4031
ltoes 11.8123
1150
root 31.6749 16.7222 15.6009 333.372 99.8127 334.668
lowerback 4.63365 0.965381 -17.5912
upperback 5.40414 1.38882 -4.15403
thorax 3.00415 0.352658 5.3451
lowerneck -22.0724 2.99231 5.179
upperneck 25.9182 0.822456 6.75504
head 12.306 1.98065 1.87736
rclavicle 1.03368e-014 3.18055e-015
rhumerus 37.2022 16.0653 -30.5508
rradius 39.9282
rwrist -3.26958
rhand -5.91052 -31.4844
rfingers 7.12502
rthumb 19.9184 -60.4837
lclavicle 1.03368e-014 3.18055e-015
lhumerus 41.9728 -16.1995 29.0596
lradius 40.234
lwrist 4.88715
lhand -14.0493 -24.3594
lfingers 7.12502
lthumb 12.0816 5.27184
rfemur -14.0813 -4.86203 7.18856
rtibia 14.2191
rfoot -3.52409 -0.865793
rtoes 13.0068
lfemur 27.4377 -9.54143 -25.4329
ltibia 9.92367
lfoot -6.52316 -14.782
ltoes 10.7714
1151
root 31.8381 16.6965 15.6263 336.476 100.265 337.926
lowerback 4.67376 0.965575 -17.1752
upperback 5.45659 1.37982 -3.94632
thorax 3.02948 0.347694 5.34434
lowerneck -22.2189 3.0575 5.39175
upperneck 26.0017 0.901221 6.47161
head 12.3697 2.00165 1.75356
rclavicle -2.06736e-014 1.43125e-014
rhumerus 37.3517 15.9659 -30.7488
rradius 39.8983
rwrist -3.34583
rhand -5.87457 -31.6831
rfingers 7.12502
rthumb 19.9529 -60.6787
lclavicle -2.06736e-014 1.43125e-014
lhumerus 41.8459 -16.1829 28.9862
lradius 40.2592
lwrist 4.78419
lhand -14.1619 -24.255
lfingers 7.12502
lthumb 11.973 5.38258
rfemur -13.5334 -3.30189 7.90281
rtibia 14.5789
rfoot -5.39428 -2.92143
rtoes 13.3412
lfemur 27.9425 -9.83993 -24.7515
ltibia 10.1022
lfoot -5.66067 -14.9699
ltoes 11.3278
1152
root 31.9877 16.6791 15.6521 338.73 100.686 340.203
lowerback 4.61982 0.957773 -16.9543
upperback 5.52713 1.3781 -3.69992
thorax 3.12811 0.332686 5.49028
lowerneck -22.2121 2.99285 5.12352
upperneck 25.8279 0.854812 6.67004
head 12.2956 1.97432 1.8592
rclavicle -6.52014e-014 -3.81667e-014
rhumerus 37.5269 15.6747 -31.169
rradius 39.8782
rwrist -3.1092
rhand -6.09044 -31.6808
rfingers 7.12502
rthumb 19.7454 -60.698
lclavicle -6.52014e-014 -3.81667e-014
lhumerus 41.755 -15.91 29.1843
lradius 40.0899
lwrist 4.61831
lhand -14.2173 -24.2774
lfingers 7.12502
lthumb 11.9195 5.36328
rfemur -13.4379 -1.98405 8.48239
rtibia 15.427
rfoot -6.73883 -4.4111
rtoes 12.2525
lfemur 28.1674 -10.0688 -24.1202
ltibia 10.3976
lfoot -4.39713 -14.8943
ltoes 13.0964
1153
root 32.1327 16.6678 15.6699 342.362 101.067 343.961
lowerback 4.77908 0.955032 -16.2443
upperback 5.54905 1.33427 -3.43138
thorax 3.05438 0.325614 5.3929
lowerneck -22.1203 2.8476 4.86657
upperneck 25.6923 0.680241 6.93973
head 12.2235 1.9041 1.9684
rclavicle 1.27222e-014 -4.77083e-015
rhumerus 37.4748 15.4371 -31.7106
rradius 39.9509
rwrist -2.96804
rhand -6.21511 -31.6093
rfingers 7.12502
rthumb 19.6256 -60.6387
lclavicle 1.27222e-014 -4.77083e-015
lhumerus 41.5065 -15.7696 29.3483
lradius 40.0534
lwrist 4.57582
lhand -14.2911 -24.3998
lfingers 7.12502
lthumb 11.8484 5.24495
rfemur -13.4279 -1.19188 9.40369
rtibia 16.7168
rfoot -7.7652 -5.25947
rtoes 10.3388
lfemur 28.3777 -10.2665 -23.1177
ltibia 10.859
lfoot -3.15695 -14.9256
ltoes 13.8313
1154
root 32.2866 16.6684 15.6799 348.149 101.281 349.984
lowerback 4.87443 0.990779 -14.8762
upperback 5.61335 1.36849 -3.09787
thorax 3.03862 0.369095 5.00339
lowerneck -21.5908 2.95397 4.88087
upperneck 25.2761 0.877851 7.0249
head 11.9518 1.98391 2.00348
rclavicle -3.89618e-014 4.29375e-014
rhumerus 37.3218 15.2653 -32.2311
rradius 40.0719
rwrist -3.14488
rhand -6.42398 -31.4345
rfingers 7.12502
rthumb 19.4247 -60.4842
lclavicle -3.89618e-014 4.29375e-014
lhumerus 41.2691 -15.7715 29.4264
lradius 40.1082
lwrist 4.65229
lhand -14.3931 -24.5408
lfingers 7.12502
lthumb 11.75 5.10963
rfemur -13.2237 -0.473037 10.9676
rtibia 17.8337
rfoot -8.62863 -6.06007
rtoes 10.7218
lfemur 28.6927 -10.4215 -21.5337
ltibia 11.2076
lfoot -1.96614 -15.0003
ltoes 13.3396
1155
root 32.4421 16.6847 15.6855 352.666 101.663 354.639
lowerback 4.78233 0.93859 -13.7998
upperback 5.72607 1.32875 -2.80759
thorax 3.20264 0.357723 4.72699
lowerneck -22.1362 2.75698 4.88661
upperneck 25.6768 0.53393 6.99288
head 12.2243 1.85103 1.96137
rclavicle -4.77083e-015 -4.77083e-015
rhumerus 37.4168 15.1833 -32.7706
rradius 40.137
rwrist -3.25709
rhand -6.92759 -31.7054
rfingers 7.12502
rthumb 18.9405 -60.8032
lclavicle -4.77083e-015 -4.77083e-015
lhumerus 40.9035 -15.6595 29.4441
lradius 40.1824
lwrist 4.8161
lhand -14.5034 -24.6019
lfingers 7.12502
lthumb 11.6437 5.05457
rfemur -12.9241 0.000268636 12.1816
rtibia 18.69
rfoot -9.32223 -6.50871
rtoes 10.2051
lfemur 28.7884 -10.5527 -20.2136
ltibia 11.6795
lfoot -0.718191 -14.918
ltoes 12.9922
1156
root 32.5801 16.7063 15.698 353.058 102.288 355.194
lowerback 5.05555 0.886923 -13.6567
upperback 5.80728 1.22522 -2.70018
thorax 3.1523 0.310128 4.76129
lowerneck -22.2476 2.94762 5.69614
upperneck 25.9803 0.764226 6.02705
head 12.3713 1.91105 1.51031
rclavicle -3.18055e-015 -5.08889e-014
rhumerus 37.4808 15.0987 -33.4466
rradius 40.1832
rwrist -3.06293
rhand -6.94773 -31.8135
rfingers 7.12502
rthumb 18.9211 -60.9132
lclavicle -3.18055e-015 -5.08889e-014
lhumerus 40.4339 -15.5929 29.3267
lradius 40.3531
lwrist 5.14115
lhand -14.6353 -24.5453
lfingers 7.12502
lthumb 11.5164 5.11832
rfemur -12.3776 0.360881 12.3332
rtibia 19.2361
rfoot -9.97893 -6.84892
rtoes 9.13784
lfemur 28.6586 -10.7319 -19.8022
ltibia 12.5784
lfoot 0.6897 -14.6497
ltoes 13.4763
